<svg width="857px" height="130px" viewBox="0 0 857 130" version="1.1" xmlns="http://www.w3.org/2000/svg" xmlns:xlink="http://www.w3.org/1999/xlink">
    <g id="Page-1" stroke="none" stroke-width="1" fill="none" fill-rule="evenodd">
        <g id="bcio" fill="#3F46AD">
            <path d="M198.058,92.001 L198.058,67.717 C198.058,55.151 187.893,44.986 175.186,44.986 L174.197,44.986 C169.256,44.986 164.314,46.68 161.914,49.645 L161.914,20.843 C161.914,17.312 159.231,15.477 156.549,15.477 C153.866,15.477 151.184,17.312 151.184,20.843 L151.184,109.648 C151.184,113.038 153.866,114.731 156.549,114.731 C158.949,114.731 161.349,113.319 161.773,110.497 C163.749,112.473 167.844,114.731 173.915,114.731 L175.186,114.731 C187.751,114.731 198.058,104.566 198.058,92.001 Z M187.328,92.001 C187.328,98.637 181.963,104.002 175.186,104.002 L173.915,104.002 C167.562,104.002 161.914,99.766 161.914,92.848 L161.914,66.587 C161.914,60.093 167.562,55.716 173.915,55.716 L175.186,55.716 C181.963,55.716 187.328,61.081 187.328,67.717 L187.328,92.001 Z M243.097,109.366 C243.097,106.684 241.402,104.002 237.732,104.002 C233.355,103.86 229.966,100.472 229.966,96.095 L229.966,20.843 C229.966,17.312 227.284,15.477 224.601,15.477 C221.919,15.477 219.236,17.312 219.236,20.843 L219.236,96.095 C219.236,106.401 227.425,114.731 237.732,114.731 C241.402,114.731 243.097,112.05 243.097,109.366 Z M304.653,92.001 L304.653,67.717 C304.653,55.151 294.488,44.986 281.922,44.986 L280.51,44.986 C267.944,44.986 257.779,55.151 257.779,67.717 L257.779,92.001 C257.779,104.566 267.944,114.731 280.51,114.731 L281.922,114.731 C294.488,114.731 304.653,104.566 304.653,92.001 Z M293.923,92.001 C293.923,98.637 288.558,104.002 281.922,104.002 L280.651,104.002 C273.874,104.002 268.509,98.637 268.509,92.001 L268.509,67.717 C268.509,61.081 273.874,55.716 280.51,55.716 L281.922,55.716 C288.558,55.716 293.923,61.081 293.923,67.717 L293.923,92.001 Z M369.739,92.001 C369.739,88.33 367.057,86.495 364.374,86.495 C361.833,86.495 359.15,88.33 359.009,92.001 C358.727,98.637 353.644,104.002 347.008,104.002 L345.737,104.002 C338.96,104.002 333.595,98.637 333.595,92.001 L333.595,67.717 C333.595,61.081 338.96,55.716 345.596,55.716 L347.008,55.716 C353.644,55.716 358.727,60.657 359.009,67.857 C359.15,71.388 361.833,73.082 364.374,73.082 C367.057,73.082 369.739,71.246 369.739,67.717 C369.739,55.151 359.433,44.986 347.008,44.986 L345.596,44.986 C333.172,44.986 322.865,55.01 322.865,67.717 L322.865,92.001 C322.865,104.566 333.031,114.731 345.596,114.731 L347.008,114.731 C359.574,114.731 369.739,104.566 369.739,92.001 Z M437.367,109.366 C437.367,108.52 437.226,107.531 436.661,106.684 L417.318,72.8 L434.825,54.163 C435.955,53.033 436.379,51.763 436.379,50.492 C436.379,47.667 433.977,44.986 430.872,44.986 C429.602,44.986 428.19,45.55 427.06,46.821 L400.235,75.341 L400.235,20.843 C400.235,17.312 397.552,15.477 394.869,15.477 C392.187,15.477 389.504,17.312 389.504,20.843 L389.504,109.366 C389.504,112.896 392.187,114.731 394.869,114.731 C397.552,114.731 400.235,112.896 400.235,109.366 L400.235,91.153 L409.694,80.987 L427.343,111.907 C428.472,113.885 430.166,114.731 431.861,114.731 C435.108,114.731 437.367,112.19 437.367,109.366 Z M498.358,92.001 C498.358,88.33 495.676,86.495 492.993,86.495 C490.452,86.495 487.768,88.33 487.628,92.001 C487.346,98.637 482.263,104.002 475.627,104.002 L474.356,104.002 C467.579,104.002 462.214,98.637 462.214,92.001 L462.214,67.717 C462.214,61.081 467.579,55.716 474.215,55.716 L475.627,55.716 C482.263,55.716 487.346,60.657 487.628,67.857 C487.768,71.388 490.452,73.082 492.993,73.082 C495.676,73.082 498.358,71.246 498.358,67.717 C498.358,55.151 488.052,44.986 475.627,44.986 L474.215,44.986 C461.791,44.986 451.484,55.01 451.484,67.717 L451.484,92.001 C451.484,104.566 461.65,114.731 474.215,114.731 L475.627,114.731 C488.193,114.731 498.358,104.566 498.358,92.001 Z M564.997,109.366 L564.997,67.717 C564.997,55.151 554.832,44.986 542.266,44.986 L541.137,44.986 C536.195,44.986 531.254,46.68 528.852,49.221 L528.852,20.843 C528.852,17.312 526.171,15.477 523.488,15.477 C520.806,15.477 518.123,17.312 518.123,20.843 L518.123,109.366 C518.123,112.896 520.806,114.731 523.488,114.731 C526.171,114.731 528.852,112.896 528.852,109.366 L528.852,67.011 C528.852,59.668 535.207,55.716 541.702,55.716 C547.914,55.716 554.267,59.528 554.267,67.717 L554.267,109.366 C554.267,112.896 556.95,114.731 559.632,114.731 C562.315,114.731 564.997,112.896 564.997,109.366 Z M635.59,109.226 C635.59,106.967 634.178,104.708 631.072,104.143 C628.531,103.72 627.402,102.024 627.402,99.483 L627.402,66.727 C627.402,54.586 617.801,44.986 605.235,44.986 L604.247,44.986 C596.764,44.986 587.727,47.951 583.21,58.116 C582.786,58.963 582.645,59.81 582.645,60.657 C582.645,63.622 585.328,65.599 588.01,65.599 C589.846,65.599 591.681,64.752 592.811,62.775 C595.493,58.116 598.458,55.716 604.247,55.716 L605.235,55.716 C611.447,55.716 616.671,58.822 616.671,67.151 C616.671,67.857 616.671,68.986 616.248,69.552 C612.859,74.352 581.516,70.398 580.527,92.707 L580.527,94.4 C580.527,107.531 591.822,114.731 603.259,114.731 L604.529,114.731 C610.318,114.731 615.683,112.613 619.777,109.085 C621.613,111.767 624.578,113.885 629.378,114.591 C629.661,114.731 630.084,114.731 630.366,114.731 C633.755,114.731 635.59,112.05 635.59,109.226 Z M616.671,92.001 C616.671,98.637 611.165,104.002 604.529,104.002 L603.259,104.002 C596.058,104.002 591.258,100.189 591.258,94.119 L591.258,92.988 C591.681,83.105 606.223,83.671 616.671,80.847 L616.671,92.001 Z M663.262,109.366 L663.262,50.351 C663.262,46.821 660.579,44.986 657.897,44.986 C655.214,44.986 652.532,46.821 652.532,50.351 L652.532,109.366 C652.532,112.896 655.214,114.731 657.897,114.731 C660.579,114.731 663.262,112.896 663.262,109.366 Z M732.724,109.366 L732.724,67.717 C732.724,52.185 722.135,44.986 710.134,44.986 L708.864,44.986 C703.922,44.986 699.263,46.68 696.721,49.221 C696.157,46.396 693.756,44.986 691.356,44.986 C688.533,44.986 685.85,46.962 685.85,50.351 L685.85,109.366 C685.85,112.896 688.533,114.731 691.215,114.731 C693.898,114.731 696.58,112.896 696.58,109.366 L696.58,67.717 C696.58,61.081 702.087,55.716 708.722,55.716 L709.993,55.716 C716.77,55.716 722.135,61.081 722.135,67.717 L722.135,109.366 C722.135,112.896 724.818,114.731 727.5,114.731 C730.183,114.731 732.724,112.896 732.724,109.366 Z M788.13,109.366 L788.13,50.351 C788.13,46.821 785.447,44.986 782.765,44.986 C780.082,44.986 777.4,46.821 777.4,50.351 L777.4,109.366 C777.4,112.896 780.082,114.731 782.765,114.731 C785.447,114.731 788.13,112.896 788.13,109.366 Z M856.039,92.001 L856.039,67.717 C856.039,55.151 845.874,44.986 833.308,44.986 L831.896,44.986 C819.33,44.986 809.165,55.151 809.165,67.717 L809.165,92.001 C809.165,104.566 819.33,114.731 831.896,114.731 L833.308,114.731 C845.874,114.731 856.039,104.566 856.039,92.001 Z M845.309,92.001 C845.309,98.637 839.944,104.002 833.308,104.002 L832.037,104.002 C825.26,104.002 819.895,98.637 819.895,92.001 L819.895,67.717 C819.895,61.081 825.26,55.716 831.896,55.716 L833.308,55.716 C839.944,55.716 845.309,61.081 845.309,67.717 L845.309,92.001 Z" id="Fill-1"></path>
            <path d="M54.973,59.74 C52.015,59.74 49.609,62.147 49.609,65.105 C49.609,68.062 52.015,70.469 54.973,70.469 C57.932,70.469 60.339,68.062 60.339,65.105 C60.339,62.147 57.932,59.74 54.973,59.74" id="Fill-2"></path>
            <path d="M79.777,44.857 C76.819,44.857 74.414,47.264 74.414,50.222 C74.414,53.18 76.819,55.586 79.777,55.586 C82.736,55.586 85.144,53.18 85.144,50.222 C85.144,47.264 82.736,44.857 79.777,44.857" id="Fill-3"></path>
            <path d="M104.582,29.975 C101.624,29.975 99.217,32.381 99.217,35.339 C99.217,38.298 101.624,40.706 104.582,40.706 C107.541,40.706 109.947,38.298 109.947,35.339 C109.947,32.381 107.541,29.975 104.582,29.975" id="Fill-4"></path>
            <g id="Group-8" transform="translate(24.000000, 0.000000)">
                <path d="M6.168,15.092 C3.21,15.092 0.803,17.498 0.803,20.457 C0.803,23.415 3.21,25.821 6.168,25.821 C9.127,25.821 11.533,23.415 11.533,20.457 C11.533,17.498 9.127,15.092 6.168,15.092" id="Fill-5"></path>
                <path d="M30.973,0.209 C28.015,0.209 25.609,2.616 25.609,5.574 C25.609,8.533 28.015,10.94 30.973,10.94 C33.932,10.94 36.339,8.533 36.339,5.574 C36.339,2.616 33.932,0.209 30.973,0.209" id="Fill-7"></path>
            </g>
            <path d="M54.973,29.975 C52.015,29.975 49.609,32.381 49.609,35.339 C49.609,38.298 52.015,40.706 54.973,40.706 C57.932,40.706 60.339,38.298 60.339,35.339 C60.339,32.381 57.932,29.975 54.973,29.975" id="Fill-9"></path>
            <path d="M79.777,15.092 C76.819,15.092 74.414,17.498 74.414,20.457 C74.414,23.415 76.819,25.821 79.777,25.821 C82.736,25.821 85.144,23.415 85.144,20.457 C85.144,17.498 82.736,15.092 79.777,15.092" id="Fill-10"></path>
            <path d="M79.777,74.623 C76.819,74.623 74.414,77.029 74.414,79.987 C74.414,82.945 76.819,85.352 79.777,85.352 C82.736,85.352 85.144,82.945 85.144,79.987 C85.144,77.029 82.736,74.623 79.777,74.623" id="Fill-11"></path>
            <path d="M104.582,59.74 C101.624,59.74 99.217,62.147 99.217,65.105 C99.217,68.062 101.624,70.469 104.582,70.469 C107.541,70.469 109.947,68.062 109.947,65.105 C109.947,62.147 107.541,59.74 104.582,59.74" id="Fill-12"></path>
            <path d="M79.777,104.388 C76.819,104.388 74.414,106.795 74.414,109.753 C74.414,112.711 76.819,115.117 79.777,115.117 C82.736,115.117 85.144,112.711 85.144,109.753 C85.144,106.795 82.736,104.388 79.777,104.388" id="Fill-13"></path>
            <path d="M104.582,89.506 C101.624,89.506 99.217,91.911 99.217,94.87 C99.217,97.828 101.624,100.234 104.582,100.234 C107.541,100.234 109.947,97.828 109.947,94.87 C109.947,91.911 107.541,89.506 104.582,89.506" id="Fill-14"></path>
            <path d="M54.973,119.271 C52.015,119.271 49.609,121.678 49.609,124.636 C49.609,127.594 52.015,130 54.973,130 C57.932,130 60.339,127.594 60.339,124.636 C60.339,121.678 57.932,119.271 54.973,119.271" id="Fill-15"></path>
            <path d="M54.973,89.506 C52.015,89.506 49.609,91.911 49.609,94.87 C49.609,97.828 52.015,100.234 54.973,100.234 C57.932,100.234 60.339,97.828 60.339,94.87 C60.339,91.911 57.932,89.506 54.973,89.506" id="Fill-16"></path>
            <path d="M30.168,44.857 C27.21,44.857 24.803,47.264 24.803,50.222 C24.803,53.18 27.21,55.586 30.168,55.586 C33.127,55.586 35.533,53.18 35.533,50.222 C35.533,47.264 33.127,44.857 30.168,44.857" id="Fill-17"></path>
            <path d="M30.168,104.388 C27.21,104.388 24.803,106.795 24.803,109.753 C24.803,112.711 27.21,115.117 30.168,115.117 C33.127,115.117 35.533,112.711 35.533,109.753 C35.533,106.795 33.127,104.388 30.168,104.388" id="Fill-18"></path>
            <g id="Group-24" transform="translate(0.000000, 29.000000)">
                <path d="M30.168,45.623 C27.21,45.623 24.803,48.029 24.803,50.987 C24.803,53.945 27.21,56.352 30.168,56.352 C33.127,56.352 35.533,53.945 35.533,50.987 C35.533,48.029 33.127,45.623 30.168,45.623" id="Fill-19"></path>
                <path d="M5.364,0.975 C2.406,0.975 0,3.381 0,6.339 C0,9.298 2.406,11.706 5.364,11.706 C8.322,11.706 10.73,9.298 10.73,6.339 C10.73,3.381 8.322,0.975 5.364,0.975" id="Fill-21"></path>
                <path d="M5.364,60.506 C2.406,60.506 0,62.911 0,65.87 C0,68.828 2.406,71.234 5.364,71.234 C8.322,71.234 10.73,68.828 10.73,65.87 C10.73,62.911 8.322,60.506 5.364,60.506" id="Fill-22"></path>
                <path d="M5.364,30.74 C2.406,30.74 0,33.147 0,36.105 C0,39.062 2.406,41.469 5.364,41.469 C8.322,41.469 10.73,39.062 10.73,36.105 C10.73,33.147 8.322,30.74 5.364,30.74" id="Fill-23"></path>
            </g>
            <path d="M657.81,15.183 C654.834,15.183 652.413,17.601 652.413,20.575 C652.413,23.549 654.834,25.969 657.81,25.969 C660.784,25.969 663.203,23.549 663.203,20.575 C663.203,17.601 660.784,15.183 657.81,15.183" id="Fill-25"></path>
            <path d="M782.72,15.183 C779.744,15.183 777.323,17.601 777.323,20.575 C777.323,23.549 779.744,25.969 782.72,25.969 C785.693,25.969 788.113,23.549 788.113,20.575 C788.113,17.601 785.693,15.183 782.72,15.183" id="Fill-26"></path>
            <path d="M754.421,104.388 C751.463,104.388 749.056,106.795 749.056,109.753 C749.056,112.711 751.463,115.117 754.421,115.117 C757.38,115.117 759.786,112.711 759.786,109.753 C759.786,106.795 757.38,104.388 754.421,104.388" id="Fill-27"></path>
        </g>
    </g>
</svg>
